<svg
   version="1.1"
   id="svg1"
   width="200"
   height="200"
   viewBox="0 0 200 200"
   sodipodi:docname="logo.png.png"
   inkscape:export-filename="logo.svg"
   inkscape:export-xdpi="96"
   inkscape:export-ydpi="96"
   xmlns:inkscape="http://www.inkscape.org/namespaces/inkscape"
   xmlns:sodipodi="http://sodipodi.sourceforge.net/DTD/sodipodi-0.dtd"
   xmlns="http://www.w3.org/2000/svg"
   xmlns:svg="http://www.w3.org/2000/svg">
  <defs
     id="defs1" />
  <g
     inkscape:groupmode="layer"
     inkscape:label="Image"
     id="g1">
    <path
       style="fill:#ff7043;stroke:none;stroke-width:0.841615"
       d="m 109.12865,127.41471 c -11.463429,0 -21.831729,-0.55383 -31.762452,-7.01701 C 42.115246,97.455478 53.695839,45.263427 87.437221,27.939651 109.52039,16.601526 136.74976,18.4458 158.70905,29.191926 168.81582,34.137843 176.96019,41.711659 186.59802,47.229752 171.64342,23.329852 143.129,3.0814679 114.55151,0.32906776 70.075427,-3.9545656 22.645835,34.157443 27.142611,81.154171 c 1.345382,14.060815 4.812692,28.983499 14.061642,40.091889 15.173315,18.22382 50.670923,28.41725 67.924397,6.16865 M 127.7213,94.261319 c 0,11.238651 -1.8887,22.429971 -8.92811,31.611381 -18.933443,24.6946 -59.437244,25.10536 -80.250752,2.74554 C 16.171251,104.58498 16.149084,69.937115 30.449993,41.832693 35.916819,31.089201 44.183012,22.97591 51.026604,13.305334 c -8.128325,3.600192 -15.083051,10.526833 -21.439761,16.566 -36.1150841,34.310981 -41.990201,90.982396 -1.801632,124.844626 7.062458,5.95071 14.511398,10.87121 23.241393,14.08636 9.362994,3.4483 19.406498,5.48764 29.438368,4.80394 29.713428,-2.02504 58.154198,-19.23735 58.102028,-51.58861 -0.0148,-9.15024 -3.31672,-21.87569 -10.8457,-27.756331 M 71.943338,105.82646 c 0.0059,-8.640819 1.398223,-17.680489 5.408509,-25.4433 18.310722,-35.444526 69.648443,-29.936078 90.313413,-0.771018 16.96518,23.943438 14.29403,56.171478 0.74421,80.955978 -5.44894,9.96684 -13.30641,17.81519 -19.77144,26.98532 23.77464,-14.60178 44.70909,-39.16279 49.99883,-67.0778 9.43941,-49.813513 -31.44107,-96.725314 -82.53596,-93.223113 -30.328346,2.07879 -60.091247,24.865218 -54.287754,57.756685 1.299807,7.366749 4.194185,15.922608 10.130192,20.817248 M 92.08538,72.67306 c 9.70341,0 19.19315,0.424822 27.88898,5.3013 36.54532,20.494027 28.66502,72.96273 -3.87346,92.26765 -23.886864,14.17196 -53.640228,11.03681 -77.4694,-1.39448 -8.962923,-4.67581 -16.289648,-11.47432 -24.790199,-16.76052 14.356192,25.07724 45.201411,45.74371 74.370613,47.73357 47.581826,3.24594 89.080806,-38.02153 84.309516,-85.51302 -3.08596,-30.716378 -28.08131,-60.9986 -61.8434,-51.934845 -6.64615,1.784227 -14.296302,4.763467 -18.59265,10.300345 z"
       id="path2" />
  </g>
</svg>
